<svg xmlns="http://www.w3.org/2000/svg" viewBox="0 0 32 32"><defs><style>@keyframes nginx-ani{10%,16%{transform:rotate(60deg) scale(.9)}26%,32%{transform:rotate(120deg)}42%,48%{transform:rotate(180deg) scale(.9)}58%,64%{transform:rotate(240deg)}74%,80%{transform:rotate(300deg) scale(.9)}90%,to{transform:rotate(360deg)}}</style></defs><path style="animation:nginx-ani 5s linear infinite;transform-origin:50% 50%" d="M15.948 2h.065a10.418 10.418 0 01.972.528l10.858 6.246a.792.792 0 01.414.788c-.008 4.389 0 8.777-.005 13.164a.813.813 0 01-.356.507q-5.773 3.324-11.547 6.644a.587.587 0 01-.657.037q-5.78-3.314-11.549-6.64a.7.7 0 01-.4-.666V9.445a.693.693 0 01.387-.67q5.422-3.118 10.844-6.24c.322-.184.638-.379.974-.535" fill="#019639"/><path d="M8.767 10.538v10.859a1.509 1.509 0 00.427 1.087 1.647 1.647 0 002.06.206 1.564 1.564 0 00.685-1.293c0-2.62-.005-5.24 0-7.86q3.583 4.29 7.181 8.568a2.833 2.833 0 002.6.782 1.561 1.561 0 001.251-1.371q.008-5.541 0-11.081a1.582 1.582 0 00-3.152 0c0 2.662-.016 5.321 0 7.982-2.346-2.766-4.663-5.556-7-8.332a2.817 2.817 0 00-2.649-1.052 1.579 1.579 0 00-1.403 1.505z" fill="#fff"/></svg>